<?xml version="1.0" standalone="no"?>
<!DOCTYPE svg PUBLIC "-//W3C//DTD SVG 20010904//EN"
 "http://www.w3.org/TR/2001/REC-SVG-20010904/DTD/svg10.dtd">
<svg version="1.0" xmlns="http://www.w3.org/2000/svg"
 width="1040.000000pt" height="1280.000000pt" viewBox="0 0 1040.000000 1280.000000"
 preserveAspectRatio="xMidYMid meet">
<metadata>
Created by potrace 1.15, written by Peter Selinger 2001-2017
</metadata>
<g transform="translate(0.000000,1280.000000) scale(0.100000,-0.100000)"
fill="#3f51b5" stroke="none">
<path d="M5645 12663 c-3 -71 -9 -136 -13 -146 -4 -9 -62 -50 -130 -91 l-123
-73 130 -53 c71 -28 134 -57 139 -63 5 -7 22 -72 37 -144 16 -73 31 -133 35
-133 5 0 124 139 176 205 9 12 32 12 154 0 79 -8 145 -13 147 -12 1 2 -32 58
-74 126 l-76 122 56 131 c31 73 55 133 53 135 -2 3 -66 -11 -141 -30 l-137
-34 -106 93 c-59 52 -109 94 -113 94 -4 0 -10 -57 -14 -127z"/>
<path d="M8216 12463 c-3 -15 -8 -80 -12 -144 l-6 -116 -125 -73 c-68 -40
-120 -76 -116 -81 4 -4 65 -30 134 -59 l126 -51 28 -132 c15 -73 31 -136 35
-140 4 -5 49 41 100 102 86 102 94 109 124 105 91 -11 249 -24 253 -21 2 3
-30 60 -72 127 l-76 121 59 135 c33 74 58 134 55 134 -6 0 -253 -60 -271 -65
-7 -3 -54 32 -105 78 -132 118 -124 113 -131 80z"/>
<path d="M6710 11943 c0 -74 -8 -89 -61 -117 -26 -15 -51 -31 -54 -35 -2 -5
22 -19 55 -31 56 -21 61 -25 70 -64 6 -22 14 -54 18 -69 l7 -28 43 55 c27 34
49 53 60 51 9 -2 40 -6 69 -9 l51 -5 -35 60 -36 59 23 53 c12 28 24 57 27 64
3 8 -10 8 -49 -3 -78 -20 -90 -18 -133 26 -21 22 -43 40 -47 40 -4 0 -8 -21
-8 -47z"/>
<path d="M4316 11363 c-4 -54 -9 -120 -12 -146 l-6 -48 -125 -73 c-104 -62
-122 -76 -107 -84 11 -5 69 -28 129 -52 61 -24 114 -47 119 -51 5 -4 23 -72
40 -149 l32 -142 39 48 c22 27 65 78 96 114 l56 66 134 -13 c74 -7 139 -12
145 -11 6 2 -22 56 -62 121 -41 65 -74 124 -74 130 0 7 25 68 55 136 30 68 53
126 51 128 -2 2 -66 -12 -142 -31 -133 -34 -140 -34 -159 -17 -11 9 -59 52
-106 94 -48 42 -89 77 -91 77 -3 0 -9 -44 -12 -97z"/>
<path d="M9846 11233 c-3 -43 -9 -109 -12 -146 l-6 -68 -124 -72 c-114 -66
-141 -87 -114 -87 6 0 67 -23 135 -51 l124 -51 21 -97 c12 -53 27 -117 33
-143 l12 -48 94 111 94 112 81 -7 c45 -3 112 -9 149 -13 l68 -6 -75 120 c-42
66 -76 127 -76 135 0 8 24 71 54 139 30 68 53 125 52 126 -2 2 -65 -13 -141
-32 -112 -28 -141 -32 -154 -22 -9 6 -58 49 -108 94 -51 46 -95 83 -97 83 -2
0 -7 -35 -10 -77z"/>
<path d="M8286 11137 c-3 -12 -6 -45 -6 -74 l0 -51 -65 -38 c-36 -21 -65 -41
-65 -44 0 -3 30 -16 67 -30 l68 -25 17 -70 c9 -39 17 -72 18 -75 0 -3 24 21
53 52 l52 58 73 -8 c83 -9 82 -12 29 71 l-34 53 29 64 c15 35 27 67 26 70 -2
4 -34 -1 -73 -10 l-70 -17 -56 49 c-54 46 -57 47 -63 25z"/>
<path d="M1956 11017 c-3 -40 -8 -106 -12 -148 l-6 -76 -124 -73 c-69 -40
-122 -75 -119 -79 3 -3 63 -28 133 -56 l127 -51 23 -99 c13 -55 29 -120 36
-144 l11 -44 84 99 c46 54 89 105 95 111 9 10 41 10 156 -2 79 -8 145 -13 146
-12 1 1 -33 58 -76 126 l-78 123 58 134 c33 76 53 134 47 134 -7 0 -71 -15
-143 -34 l-131 -33 -110 98 -111 98 -6 -72z"/>
<path d="M276 10792 c-2 -9 -8 -75 -11 -145 l-7 -128 -124 -72 c-68 -40 -124
-75 -124 -78 0 -4 60 -31 133 -60 l132 -54 30 -137 c17 -75 32 -139 35 -141 3
-3 46 44 95 103 103 124 80 116 268 96 94 -9 117 -9 113 0 -3 7 -32 56 -65
108 -33 53 -65 104 -70 115 -9 16 0 44 44 146 30 69 55 130 55 134 0 5 -61 -7
-136 -26 -75 -18 -140 -33 -145 -31 -4 2 -55 45 -113 95 -83 73 -106 89 -110
75z"/>
<path d="M6145 10705 l-7 -74 -46 -27 c-92 -53 -91 -49 -13 -79 39 -16 73 -35
75 -44 3 -9 10 -42 16 -73 6 -32 14 -58 18 -58 4 1 27 26 51 56 l45 56 78 -7
79 -7 -42 66 -42 67 31 69 c17 39 28 70 24 70 -4 0 -32 -7 -62 -15 -78 -21
-82 -20 -138 30 -27 25 -52 45 -55 45 -2 0 -8 -34 -12 -75z"/>
<path d="M8125 10393 c-460 -164 -761 -298 -945 -423 -127 -87 -368 -382 -458
-563 -30 -61 -88 -215 -144 -382 -51 -154 -93 -281 -93 -281 0 -1 -34 8 -75
19 -70 20 -100 21 -480 22 -223 0 -435 -4 -472 -8 l-66 -8 -7 78 c-4 43 -24
200 -45 348 -21 149 -44 326 -51 395 -14 144 -18 414 -6 427 5 4 77 8 160 8
138 0 156 -2 194 -22 23 -13 45 -28 48 -34 17 -26 45 -170 45 -226 0 -35 2
-63 5 -63 2 0 52 18 110 41 l105 40 0 57 c0 56 -31 206 -49 241 -5 9 -34 30
-63 47 -53 29 -53 29 -218 28 -182 -1 -200 -4 -370 -70 -189 -72 -196 -82
-193 -260 3 -153 25 -374 64 -624 34 -214 54 -355 63 -440 6 -55 5 -56 -27
-75 -17 -10 -48 -31 -68 -47 l-37 -28 -78 36 c-203 93 -439 126 -547 76 -97
-44 -196 -113 -232 -162 -84 -114 -142 -287 -165 -490 -6 -52 -12 -95 -13 -97
-2 -1 -36 8 -77 21 -202 65 -346 80 -765 80 l-351 1 -119 -69 c-66 -38 -135
-79 -152 -93 -54 -39 -305 -424 -289 -441 2 -1 39 13 82 32 75 33 79 37 107
93 36 72 186 299 224 340 28 29 34 31 138 38 143 10 664 -10 775 -30 72 -13
219 -54 382 -106 l37 -12 3 -411 4 -411 38 -115 c48 -144 67 -182 108 -214 81
-61 325 -152 439 -163 52 -5 63 -2 136 36 62 32 84 50 101 80 12 21 22 43 22
49 0 6 -32 -5 -71 -24 l-72 -35 -121 37 c-163 49 -253 92 -297 140 -52 59
-109 235 -120 374 -9 113 -12 600 -4 600 3 0 53 -18 112 -40 134 -51 221 -98
393 -214 151 -102 255 -199 396 -371 81 -99 94 -121 133 -225 119 -314 214
-502 398 -792 55 -86 147 -234 204 -328 57 -94 158 -255 223 -358 264 -414
388 -616 486 -792 57 -102 110 -195 118 -208 8 -12 12 -22 9 -22 -3 0 -67 92
-141 204 -193 291 -271 391 -425 550 -75 78 -173 184 -218 236 -109 128 -340
353 -436 423 -165 122 -446 301 -551 352 -61 29 -166 72 -233 94 l-122 41
-204 0 -205 0 -82 -43 c-115 -61 -142 -86 -200 -181 l-51 -83 -180 68 c-99 38
-276 101 -392 140 -270 90 -274 90 -557 19 -237 -60 -274 -74 -395 -151 -95
-61 -136 -103 -204 -210 -71 -114 -138 -343 -148 -506 l-6 -103 -66 0 c-36 0
-82 -5 -102 -10 -43 -12 -231 -119 -265 -151 -39 -37 -54 -107 -54 -253 0
-158 15 -234 68 -346 54 -117 90 -162 174 -217 l71 -48 91 0 c83 0 99 3 181
38 92 39 168 76 241 118 l41 23 114 -85 c159 -119 228 -160 349 -206 219 -84
234 -88 370 -88 109 0 130 3 165 22 60 32 103 82 125 146 19 52 28 167 14 167
-4 0 -41 -19 -83 -41 -73 -40 -76 -43 -77 -78 0 -20 -3 -53 -8 -74 -7 -36 -8
-37 -50 -37 -107 0 -372 100 -517 195 -260 170 -416 320 -489 470 -41 86 -106
263 -98 270 7 7 387 -118 591 -194 100 -38 247 -89 326 -115 235 -75 450 -187
766 -394 239 -158 327 -204 545 -286 96 -36 225 -86 285 -112 61 -25 184 -72
275 -104 91 -32 197 -70 235 -85 39 -14 140 -50 225 -79 85 -29 200 -72 255
-94 55 -23 154 -62 219 -87 141 -54 499 -239 676 -350 69 -43 180 -105 248
-138 68 -32 122 -60 120 -63 -2 -2 -92 25 -199 60 -106 36 -324 106 -484 156
-159 50 -585 188 -945 305 -360 118 -682 222 -715 231 -52 15 -121 18 -510 22
-247 2 -469 1 -492 -3 -26 -4 -73 -27 -126 -61 -80 -52 -86 -58 -107 -114 -41
-109 -27 -171 88 -398 25 -48 110 -160 162 -212 122 -123 407 -335 640 -478
82 -50 242 -113 284 -111 12 0 50 15 86 32 72 36 110 81 110 132 0 18 9 61 19
96 13 41 22 111 27 194 4 72 10 137 15 147 7 12 18 15 47 11 34 -5 48 1 110
42 39 26 69 51 66 56 -18 30 -172 11 -255 -31 -105 -53 -139 -100 -139 -194 0
-101 -35 -317 -55 -344 -6 -8 -99 35 -175 82 -152 95 -388 260 -478 337 -191
162 -270 260 -358 449 -41 87 -49 114 -48 160 0 30 6 65 13 78 l12 23 437 -3
437 -4 90 -28 c50 -15 151 -48 225 -72 74 -25 205 -68 290 -95 85 -28 326
-106 535 -174 209 -68 470 -151 580 -185 110 -34 292 -92 405 -130 113 -37
338 -112 500 -165 459 -152 480 -162 430 -193 -11 -7 -20 -16 -20 -21 0 -6
123 -232 135 -249 2 -2 31 -11 66 -20 l63 -17 718 -1105 c394 -608 717 -1113
718 -1122 0 -9 10 -24 22 -32 88 -62 375 76 477 230 38 57 40 98 7 133 -13 15
-348 509 -745 1100 l-721 1075 6 65 5 66 -78 143 -79 144 -3 191 c-3 213 -11
262 -70 450 -51 161 -105 373 -125 497 -33 205 -40 319 -40 715 l-1 400 94
140 c52 77 97 144 101 148 12 14 65 -19 119 -73 123 -123 200 -284 201 -417
l0 -43 -78 0 -79 0 -73 -52 -72 -53 83 -3 c202 -7 348 49 380 145 20 61 -5
200 -54 298 -63 126 -149 233 -231 287 -65 42 -112 49 -169 24 -45 -19 -123
-90 -173 -158 l-42 -57 6 907 c4 794 3 925 -11 1052 -49 434 -50 467 -48 1424
1 976 0 947 53 1086 11 30 41 90 66 133 42 70 49 77 78 77 53 0 183 -72 255
-142 107 -103 103 -86 109 -435 l5 -302 50 30 c40 24 45 25 25 7 -14 -13 -39
-33 -55 -46 -38 -30 -27 -25 62 28 62 36 73 47 79 75 3 18 4 156 2 307 -3 263
-4 275 -26 318 -31 60 -101 130 -186 187 -143 96 -221 106 -346 43 -103 -52
-139 -85 -194 -178 -59 -102 -94 -181 -118 -272 -19 -72 -20 -106 -18 -985 1
-933 4 -1037 46 -1430 13 -129 15 -293 12 -1135 l-3 -985 -32 -50 c-47 -74
-93 -176 -93 -207 0 -50 -16 -37 -70 60 -29 53 -96 169 -148 257 -52 88 -154
275 -227 415 l-132 255 -86 295 c-110 380 -122 422 -152 560 -30 135 -76 392
-71 397 1 2 24 -6 49 -17 32 -14 78 -23 145 -27 110 -7 136 1 246 72 l59 38
-6 226 c-9 330 -47 580 -116 754 -52 131 -215 383 -290 449 l-34 30 28 101
c44 160 192 584 235 672 49 101 92 165 205 307 139 176 202 233 320 288 147
69 328 141 520 206 143 48 181 65 238 107 37 28 67 52 67 54 0 7 -28 -1 -95
-24z m-1894 -1729 c45 -8 112 -29 147 -45 57 -25 64 -31 58 -51 -3 -13 -21
-90 -38 -173 l-33 -150 1 -410 c1 -504 18 -712 79 -1010 13 -60 22 -111 21
-112 -1 -2 -40 72 -87 164 -97 194 -142 266 -350 573 -83 124 -210 315 -281
424 -131 202 -193 288 -259 361 l-36 40 -22 185 c-13 102 -25 193 -27 203 -5
16 17 17 369 17 299 0 392 -3 458 -16z m-1022 -146 c1 -34 -5 -34 -43 -4 -32
26 -30 45 7 92 l22 29 7 -45 c3 -25 7 -57 7 -72z m-563 72 c43 -11 131 -45
194 -77 l115 -58 -1 -40 c-1 -22 2 -175 7 -340 8 -312 18 -424 48 -550 10 -41
17 -75 14 -75 -2 0 -29 21 -61 47 -81 66 -304 211 -392 256 -41 21 -145 62
-230 91 l-155 54 -3 38 c-6 65 19 279 43 378 23 94 77 214 123 275 l25 34 97
-7 c53 -3 132 -15 176 -26z m1981 -212 c85 -131 119 -193 153 -286 65 -178 99
-387 107 -661 l6 -214 -59 7 c-62 8 -181 60 -221 98 -21 20 -24 20 -48 4 -24
-16 -26 -16 -33 1 -3 10 -7 241 -7 513 0 379 3 511 14 563 7 37 16 67 20 67 4
0 34 -42 68 -92z m-1383 -166 c3 -21 13 -129 21 -242 28 -367 57 -479 215
-835 50 -112 90 -205 90 -209 0 -3 -57 38 -126 91 -84 65 -131 108 -140 128
-21 51 -123 394 -139 470 -27 125 -45 336 -45 533 l0 193 59 -46 c49 -38 61
-54 65 -83z m564 -749 c246 -369 319 -488 389 -627 47 -94 119 -231 160 -305
41 -73 115 -220 165 -325 49 -105 116 -245 148 -311 58 -121 103 -252 410
-1195 78 -239 171 -514 207 -610 75 -199 195 -552 190 -557 -2 -2 -16 30 -32
69 -83 215 -228 516 -379 787 -198 356 -255 473 -376 776 -131 330 -239 530
-512 952 -68 105 -94 159 -192 405 -63 155 -164 398 -226 538 -158 362 -196
455 -225 556 -28 97 -55 249 -54 304 0 31 2 33 12 16 7 -10 148 -223 315 -473z
m-292 -725 c80 -83 112 -123 212 -265 57 -80 94 -152 178 -340 103 -233 203
-463 231 -533 13 -32 12 -34 -2 -15 -9 11 -77 121 -152 245 -75 124 -178 290
-228 370 -163 257 -203 332 -306 568 -10 23 -15 42 -11 42 4 0 39 -33 78 -72z
m-870 -223 c-11 -8 -25 -15 -30 -15 -6 1 0 7 14 15 32 19 40 18 16 0z m-151
-361 c223 -72 477 -215 769 -433 117 -86 319 -280 449 -431 50 -58 150 -166
222 -240 72 -74 153 -164 180 -199 67 -88 384 -564 429 -644 29 -51 86 -194
86 -214 0 -8 -186 163 -315 289 -71 70 -172 159 -223 197 -51 39 -130 104
-176 144 -175 153 -510 393 -1036 742 -569 378 -754 492 -892 551 -45 19 -84
37 -86 38 -5 6 37 97 78 167 l41 69 182 0 c183 0 183 0 292 -36z m-1439 -55
c104 -34 248 -84 319 -111 72 -27 175 -66 230 -85 55 -20 103 -39 108 -43 4
-3 0 -28 -8 -56 -8 -27 -18 -82 -21 -121 -6 -69 -5 -77 26 -139 17 -36 38 -68
44 -70 12 -4 156 72 156 82 0 2 -13 30 -30 61 -24 45 -30 68 -30 120 l0 65 27
-7 c41 -10 266 -143 473 -279 860 -566 1169 -783 1410 -990 47 -40 132 -109
190 -153 58 -45 143 -120 190 -168 47 -48 137 -132 200 -188 63 -55 188 -175
277 -265 143 -146 171 -180 242 -296 44 -72 127 -205 184 -296 58 -91 103
-166 102 -168 -2 -2 -40 20 -86 48 -45 28 -108 62 -138 75 -72 30 -221 112
-319 174 -83 53 -238 141 -247 141 -3 0 -63 31 -133 69 -136 74 -448 202 -744
305 -448 156 -517 181 -926 340 -150 59 -299 119 -330 135 -31 16 -151 91
-267 166 -351 229 -569 340 -850 434 -99 32 -252 86 -340 119 -228 84 -420
147 -570 185 l-130 34 2 148 c2 128 6 162 33 261 41 153 65 215 116 299 79
126 84 130 257 176 319 86 315 86 583 -2z m-1226 -970 c69 -11 80 -19 80 -60
0 -36 43 -181 84 -284 47 -119 89 -184 185 -286 l83 -89 -36 -15 c-45 -19 -59
-19 -26 0 49 28 3 14 -85 -25 -77 -34 -100 -40 -159 -40 -56 0 -80 5 -123 28
-62 30 -113 76 -147 130 -41 67 -94 206 -106 281 -15 93 -6 281 17 334 l16 37
76 0 c42 0 105 -5 141 -11z m5450 -353 c42 -83 95 -203 118 -266 36 -102 42
-128 47 -235 3 -66 4 -117 1 -114 -9 9 -106 286 -187 536 -44 134 -83 252 -86
261 -14 43 38 -46 107 -182z m-459 -696 c149 -332 257 -515 433 -735 60 -75
115 -157 147 -220 61 -119 56 -115 -47 35 -110 162 -296 403 -370 480 -69 73
-76 89 -184 412 -34 103 -66 190 -71 193 -5 4 -9 12 -9 18 1 21 48 -65 101
-183z"/>
<path d="M3426 10008 c-3 -24 -7 -61 -8 -82 -3 -38 -7 -42 -77 -84 l-74 -45
79 -31 79 -32 19 -82 c11 -45 22 -82 25 -81 3 0 30 29 59 64 29 35 58 62 65
60 6 -2 45 -6 85 -10 l72 -6 -46 74 -46 75 32 72 c17 39 29 74 26 77 -3 3 -34
-2 -70 -11 -36 -9 -72 -16 -80 -16 -8 0 -39 23 -69 50 -30 28 -57 50 -60 50
-3 0 -8 -19 -11 -42z"/>
<path d="M1015 9074 l-7 -75 -74 -37 c-41 -20 -74 -39 -74 -42 0 -3 34 -16 76
-30 41 -13 79 -29 83 -35 4 -5 14 -37 21 -70 7 -33 15 -64 18 -68 2 -4 29 19
60 52 l57 61 85 -9 c47 -4 87 -7 89 -5 2 2 -10 20 -26 41 -70 89 -69 83 -28
163 30 59 33 71 18 66 -10 -3 -49 -12 -88 -20 l-69 -14 -63 49 c-34 27 -64 49
-67 49 -2 0 -7 -34 -11 -76z"/>
<path d="M2156 8833 c-4 -49 -9 -114 -12 -145 l-6 -57 -124 -73 c-68 -40 -120
-75 -116 -79 4 -3 61 -28 127 -54 66 -27 124 -52 128 -56 5 -3 22 -67 38 -140
16 -74 31 -138 32 -142 1 -4 45 44 97 107 88 108 97 115 125 111 50 -8 257
-26 260 -23 1 2 -30 55 -71 118 -40 63 -73 122 -73 131 -1 9 24 72 53 140 30
68 53 125 52 127 -2 1 -66 -13 -142 -32 -133 -34 -140 -34 -159 -17 -11 9 -59
52 -106 94 -48 42 -89 77 -92 77 -3 0 -8 -39 -11 -87z"/>
<path d="M9066 8302 c-4 -53 -9 -120 -12 -149 l-6 -52 -124 -72 c-68 -39 -124
-73 -124 -74 0 -1 59 -27 131 -56 72 -30 134 -61 139 -69 4 -8 20 -71 34 -140
25 -117 32 -139 39 -129 3 4 161 193 177 212 3 4 71 0 150 -8 79 -8 144 -14
146 -12 1 1 -31 55 -72 120 -41 65 -74 124 -74 131 0 7 24 69 54 137 30 68 51
125 47 127 -5 2 -69 -12 -143 -31 l-134 -34 -45 40 c-24 21 -74 66 -110 98
l-67 59 -6 -98z"/>
<path d="M1575 6993 c-10 -182 1 -163 -143 -248 -123 -72 -125 -74 -99 -84
101 -39 234 -96 243 -105 6 -6 24 -71 39 -143 16 -73 31 -133 35 -133 3 0 41
42 83 93 112 137 90 127 242 111 72 -8 135 -13 142 -12 7 2 -19 52 -62 123
-41 66 -75 123 -75 128 0 5 25 65 55 134 30 70 53 128 51 130 -2 2 -66 -12
-141 -31 l-138 -35 -104 92 c-58 51 -108 93 -113 95 -4 2 -11 -50 -15 -115z"/>
<path d="M8386 6899 c-3 -24 -7 -60 -8 -79 -3 -31 -9 -38 -65 -70 -34 -19 -63
-38 -63 -41 0 -3 31 -18 69 -33 l68 -27 13 -62 c7 -34 16 -67 19 -74 4 -8 24
10 54 45 l48 58 71 -8 c40 -4 74 -5 76 -3 3 2 -13 32 -35 67 l-40 63 29 64
c16 35 27 66 24 68 -3 3 -35 -2 -72 -11 -74 -19 -65 -22 -146 52 l-36 34 -6
-43z"/>
<path d="M206 6134 c-3 -26 -6 -69 -6 -96 0 -53 9 -44 -139 -135 l-33 -20 90
-38 90 -37 17 -77 c26 -123 22 -121 93 -36 56 67 67 76 90 71 15 -3 58 -8 96
-12 57 -5 67 -4 61 7 -4 8 -28 46 -51 85 l-44 71 36 82 c20 46 33 85 30 88 -3
3 -44 -4 -92 -16 l-87 -22 -31 28 c-17 15 -49 45 -72 66 l-41 38 -7 -47z"/>
<path d="M8916 5123 c-3 -43 -9 -108 -12 -145 l-6 -68 -125 -74 c-106 -62
-123 -75 -107 -83 11 -6 66 -29 124 -52 58 -23 111 -45 117 -49 7 -4 26 -68
43 -142 17 -74 31 -139 33 -143 1 -4 38 35 82 88 44 53 87 104 95 114 14 16
24 16 140 5 69 -7 135 -13 147 -13 20 -1 13 13 -56 124 l-79 125 59 132 c32
73 57 134 55 136 -2 1 -66 -13 -142 -32 -131 -33 -140 -34 -159 -18 -11 9 -59
52 -106 95 -48 42 -89 77 -92 77 -2 0 -8 -35 -11 -77z"/>
<path d="M1956 3827 c-3 -40 -8 -106 -12 -148 l-6 -76 -124 -73 c-69 -40 -123
-75 -120 -77 3 -3 62 -29 133 -57 l128 -52 23 -100 c13 -54 29 -119 36 -143
l11 -44 84 99 c46 54 89 105 95 112 10 10 40 9 156 -3 79 -8 144 -14 145 -13
2 2 -32 59 -75 127 l-78 123 58 134 c33 76 53 134 47 134 -7 0 -71 -15 -143
-34 l-131 -33 -110 98 -111 98 -6 -72z"/>
<path d="M5246 1658 c-4 -57 -9 -123 -12 -148 l-5 -45 -107 -62 c-165 -96
-164 -81 -8 -143 82 -32 137 -59 140 -69 3 -9 17 -72 32 -141 15 -69 28 -126
29 -128 2 -2 45 46 96 107 75 90 97 111 118 110 14 0 80 -6 146 -13 66 -7 121
-12 123 -11 1 1 -31 56 -73 121 -41 65 -75 124 -75 131 0 7 25 69 55 138 30
70 55 128 55 130 0 1 -60 -12 -132 -31 -73 -18 -139 -34 -145 -34 -7 0 -54 37
-105 82 -51 45 -100 88 -109 95 -15 13 -17 5 -23 -89z"/>
</g>
</svg>
